<svg width="24" height="24" viewBox="0 0 24 24" fill="none" xmlns="http://www.w3.org/2000/svg">
<path d="M11.2 1.60001C10.7584 1.60001 10.4 1.95841 10.4 2.40001V3.35313C6.31124 4.10913 3.2 7.69647 3.2 12C3.2 16.8506 7.14937 20.8 12 20.8C16.8506 20.8 20.8 16.8506 20.8 12C20.8 7.69647 17.6888 4.10913 13.6 3.35313V2.40001C13.6 1.95841 13.2416 1.60001 12.8 1.60001H11.2ZM18.3922 3.19219C18.233 3.19224 18.0775 3.23974 17.9455 3.32863C17.8135 3.41752 17.711 3.54376 17.6511 3.69121C17.5912 3.83866 17.5767 4.00062 17.6093 4.15638C17.642 4.31214 17.7203 4.45463 17.8344 4.56563L18.6344 5.36563C18.7081 5.44241 18.7964 5.50371 18.8941 5.54594C18.9918 5.58816 19.0969 5.61047 19.2034 5.61156C19.3098 5.61264 19.4154 5.59247 19.5139 5.55224C19.6125 5.51201 19.702 5.45252 19.7773 5.37726C19.8525 5.302 19.912 5.21247 19.9522 5.11393C19.9925 5.01539 20.0126 4.90981 20.0115 4.80338C20.0105 4.69694 19.9882 4.5918 19.9459 4.4941C19.9037 4.39639 19.8424 4.3081 19.7656 4.23438L18.9656 3.43438C18.8911 3.35775 18.8019 3.29683 18.7034 3.25523C18.6049 3.21363 18.4991 3.1922 18.3922 3.19219ZM12 4.80001C15.9859 4.80001 19.2 8.01408 19.2 12C19.2 15.9859 15.9859 19.2 12 19.2C8.01407 19.2 4.8 15.9859 4.8 12C4.8 8.01408 8.01407 4.80001 12 4.80001ZM11.9875 6.38907C11.7756 6.39238 11.5737 6.47963 11.426 6.63166C11.2784 6.7837 11.1971 6.9881 11.2 7.20001V10.6172C10.9572 10.7574 10.7555 10.9589 10.6151 11.2016C10.4747 11.4443 10.4005 11.7196 10.4 12C10.4002 12.2806 10.4743 12.5563 10.6147 12.7993C10.7551 13.0423 10.957 13.2441 11.2 13.3844V14.4C11.1985 14.506 11.2181 14.6113 11.2576 14.7096C11.2971 14.808 11.3558 14.8976 11.4303 14.973C11.5047 15.0485 11.5934 15.1085 11.6912 15.1494C11.789 15.1903 11.894 15.2114 12 15.2114C12.106 15.2114 12.211 15.1903 12.3088 15.1494C12.4066 15.1085 12.4953 15.0485 12.5697 14.973C12.6442 14.8976 12.7029 14.808 12.7424 14.7096C12.7819 14.6113 12.8015 14.506 12.8 14.4V13.3828C13.0428 13.2426 13.2445 13.0411 13.3849 12.7984C13.5253 12.5557 13.5995 12.2804 13.6 12C13.5998 11.7194 13.5257 11.4437 13.3853 11.2007C13.2449 10.9577 13.043 10.756 12.8 10.6156V7.20001C12.8015 7.09297 12.7814 6.98674 12.7411 6.88758C12.7008 6.78843 12.641 6.69838 12.5652 6.62276C12.4894 6.54715 12.3993 6.4875 12.3 6.44736C12.2008 6.40722 12.0945 6.3874 11.9875 6.38907Z" fill="#83F6B1"/>
</svg>
